<?xml version="1.0" encoding="utf-8"?>
<!-- Svg Vector Icons : http://www.onlinewebfonts.com/icon -->
<!DOCTYPE svg PUBLIC "-//W3C//DTD SVG 1.1//EN" "http://www.w3.org/Graphics/SVG/1.1/DTD/svg11.dtd">
<svg version="1.1" xmlns="http://www.w3.org/2000/svg" xmlns:xlink="http://www.w3.org/1999/xlink" x="0px" y="0px" viewBox="0 0 1000 1000" enable-background="new 0 0 1000 1000" xml:space="preserve">
<metadata> Svg Vector Icons : http://www.onlinewebfonts.com/icon </metadata>
<g><g><g><path d="M986.8,508.8c-1.9-9.9-8.6-35.2-30.5-72.8c-56.8-97.5-175.1-267.3-246.7-298.6C614.6,95.8,496.5,207.5,533,263c36.5,55.5,89-27.6,149,16.8c37,27.3,73.9,109.7,96.8,168.8H222.4c22.9-59.2,59.8-141.5,96.8-168.8c60-44.4,112.5,38.7,149-16.8c36.5-55.5-81.5-167.2-176.4-125.6C220.2,168.8,102,338.6,45.1,436c-16,27.5-23.9,48.5-27.8,61.6c-4.7,10.4-7.4,22-7.4,34.1v256.8c0,45.8,37.3,83.1,83.1,83.1l237.8,0c10,0,19.6-3.1,27.7-9L503,758.3l137.7,103.8c8.2,6.2,18.3,9.6,28.5,9.6l237.8,0c45.8,0,83.1-37.3,83.1-83.1V531.7C990,523.8,988.9,516.1,986.8,508.8z M895.2,776.9l-210.2,0L532.1,661.5c-8.2-6.2-18.3-9.5-28.5-9.5c-10,0-19.6,3.1-27.8,9L315.5,776.8l-210.7,0V543.5h790.4L895.2,776.9L895.2,776.9z"/><path d="M385.6,581.8c-0.1,0-0.2,0-0.3,0L130.8,582v165.6l165.9,0l136.8-98.8C428.8,588.7,399,581.8,385.6,581.8z"/><path d="M614.3,582.6c-13.4,0-43.1,6.9-47.8,66.9l136.8,98.8l165.9,0V582.7C869.2,582.7,614.5,582.6,614.3,582.6z M846.6,725.8l-136,0L590.6,639c2.5-14.7,8.5-32.9,22.7-33.8l233.3,0.1V725.8z"/></g></g><g></g><g></g><g></g><g></g><g></g><g></g><g></g><g></g><g></g><g></g><g></g><g></g><g></g><g></g><g></g></g>
</svg>